<svg width="12" height="12" viewBox="0 0 12 12" fill="none" xmlns="http://www.w3.org/2000/svg">
<g id="Frame">
<path id="Vector" d="M9 3.375V10.125C9 10.2245 8.96049 10.3198 8.89017 10.3902C8.81984 10.4605 8.72446 10.5 8.625 10.5H1.875C1.77554 10.5 1.68016 10.4605 1.60984 10.3902C1.53951 10.3198 1.5 10.2245 1.5 10.125V3.375C1.5 3.27554 1.53951 3.18016 1.60984 3.10984C1.68016 3.03951 1.77554 3 1.875 3H8.625C8.72446 3 8.81984 3.03951 8.89017 3.10984C8.96049 3.18016 9 3.27554 9 3.375ZM10.125 1.5H3.375C3.27554 1.5 3.18016 1.53951 3.10984 1.60984C3.03951 1.68016 3 1.77554 3 1.875C3 1.97446 3.03951 2.06984 3.10984 2.14016C3.18016 2.21049 3.27554 2.25 3.375 2.25H9.75V8.625C9.75 8.72446 9.78951 8.81984 9.85983 8.89017C9.93016 8.96049 10.0255 9 10.125 9C10.2245 9 10.3198 8.96049 10.3902 8.89017C10.4605 8.81984 10.5 8.72446 10.5 8.625V1.875C10.5 1.77554 10.4605 1.68016 10.3902 1.60984C10.3198 1.53951 10.2245 1.5 10.125 1.5Z" fill="#3F9DC5"/>
</g>
</svg>
