<svg width="16" height="17" viewBox="0 0 16 17" fill="none" xmlns="http://www.w3.org/2000/svg">
<g id="Frame">
<path id="Vector" d="M15.5 5.5V7C15.5 7.13261 15.4473 7.25979 15.3536 7.35355C15.2598 7.44732 15.1326 7.5 15 7.5C14.8674 7.5 14.7402 7.44732 14.6464 7.35355C14.5527 7.25979 14.5 7.13261 14.5 7V5.5C14.5 5.36739 14.5527 5.24021 14.6464 5.14645C14.7402 5.05268 14.8674 5 15 5C15.1326 5 15.2598 5.05268 15.3536 5.14645C15.4473 5.24021 15.5 5.36739 15.5 5.5ZM1 5C0.867392 5 0.740215 5.05268 0.646447 5.14645C0.552678 5.24021 0.5 5.36739 0.5 5.5V7C0.5 7.13261 0.552678 7.25979 0.646447 7.35355C0.740215 7.44732 0.867392 7.5 1 7.5C1.13261 7.5 1.25979 7.44732 1.35355 7.35355C1.44732 7.25979 1.5 7.13261 1.5 7V5.5C1.5 5.36739 1.44732 5.24021 1.35355 5.14645C1.25979 5.05268 1.13261 5 1 5ZM13.5 4.5V13.5C13.5 13.7652 13.3946 14.0196 13.2071 14.2071C13.0196 14.3946 12.7652 14.5 12.5 14.5H11C10.7348 14.5 10.4804 14.3946 10.2929 14.2071C10.1054 14.0196 10 13.7652 10 13.5V13H6V13.5C6 13.7652 5.89464 14.0196 5.70711 14.2071C5.51957 14.3946 5.26522 14.5 5 14.5H3.5C3.23478 14.5 2.98043 14.3946 2.79289 14.2071C2.60536 14.0196 2.5 13.7652 2.5 13.5V4.5C2.5 3.96957 2.71071 3.46086 3.08579 3.08579C3.46086 2.71071 3.96957 2.5 4.5 2.5H11.5C12.0304 2.5 12.5391 2.71071 12.9142 3.08579C13.2893 3.46086 13.5 3.96957 13.5 4.5ZM6.5 9.75C6.5 9.60166 6.45601 9.45666 6.3736 9.33332C6.29119 9.20999 6.17406 9.11386 6.03701 9.05709C5.89997 9.00033 5.74917 8.98547 5.60368 9.01441C5.4582 9.04335 5.32456 9.11478 5.21967 9.21967C5.11478 9.32456 5.04335 9.4582 5.01441 9.60368C4.98547 9.74917 5.00032 9.89997 5.05709 10.037C5.11386 10.1741 5.20999 10.2912 5.33332 10.3736C5.45666 10.456 5.60166 10.5 5.75 10.5C5.94891 10.5 6.13968 10.421 6.28033 10.2803C6.42098 10.1397 6.5 9.94891 6.5 9.75ZM11 9.75C11 9.60166 10.956 9.45666 10.8736 9.33332C10.7912 9.20999 10.6741 9.11386 10.537 9.05709C10.4 9.00033 10.2492 8.98547 10.1037 9.01441C9.9582 9.04335 9.82456 9.11478 9.71967 9.21967C9.61478 9.32456 9.54335 9.4582 9.51441 9.60368C9.48547 9.74917 9.50033 9.89997 9.55709 10.037C9.61386 10.1741 9.70999 10.2912 9.83332 10.3736C9.95666 10.456 10.1017 10.5 10.25 10.5C10.4489 10.5 10.6397 10.421 10.7803 10.2803C10.921 10.1397 11 9.94891 11 9.75ZM12.5 5H3.5V7.5H12.5V5Z" fill="#1799D0"/>
</g>
</svg>
