<svg width="16" height="17" viewBox="0 0 16 17" fill="none" xmlns="http://www.w3.org/2000/svg">
<g id="Frame">
<path id="Vector" d="M15 7.5H14.325L12.5887 3.59375C12.5102 3.41702 12.382 3.26686 12.2199 3.16148C12.0577 3.05609 11.8684 3 11.675 3H4.325C4.13159 3 3.94233 3.05609 3.78014 3.16148C3.61796 3.26686 3.48982 3.41702 3.41125 3.59375L1.675 7.5H1C0.867392 7.5 0.740215 7.55268 0.646447 7.64645C0.552678 7.74021 0.5 7.86739 0.5 8C0.5 8.13261 0.552678 8.25979 0.646447 8.35355C0.740215 8.44732 0.867392 8.5 1 8.5H1.5V13.5C1.5 13.7652 1.60536 14.0196 1.79289 14.2071C1.98043 14.3946 2.23478 14.5 2.5 14.5H4C4.26522 14.5 4.51957 14.3946 4.70711 14.2071C4.89464 14.0196 5 13.7652 5 13.5V12.5H11V13.5C11 13.7652 11.1054 14.0196 11.2929 14.2071C11.4804 14.3946 11.7348 14.5 12 14.5H13.5C13.7652 14.5 14.0196 14.3946 14.2071 14.2071C14.3946 14.0196 14.5 13.7652 14.5 13.5V8.5H15C15.1326 8.5 15.2598 8.44732 15.3536 8.35355C15.4473 8.25979 15.5 8.13261 15.5 8C15.5 7.86739 15.4473 7.74021 15.3536 7.64645C15.2598 7.55268 15.1326 7.5 15 7.5ZM5 10.5H4C3.86739 10.5 3.74021 10.4473 3.64645 10.3536C3.55268 10.2598 3.5 10.1326 3.5 10C3.5 9.86739 3.55268 9.74021 3.64645 9.64645C3.74021 9.55268 3.86739 9.5 4 9.5H5C5.13261 9.5 5.25979 9.55268 5.35355 9.64645C5.44732 9.74021 5.5 9.86739 5.5 10C5.5 10.1326 5.44732 10.2598 5.35355 10.3536C5.25979 10.4473 5.13261 10.5 5 10.5ZM11 10.5C10.8674 10.5 10.7402 10.4473 10.6464 10.3536C10.5527 10.2598 10.5 10.1326 10.5 10C10.5 9.86739 10.5527 9.74021 10.6464 9.64645C10.7402 9.55268 10.8674 9.5 11 9.5H12C12.1326 9.5 12.2598 9.55268 12.3536 9.64645C12.4473 9.74021 12.5 9.86739 12.5 10C12.5 10.1326 12.4473 10.2598 12.3536 10.3536C12.2598 10.4473 12.1326 10.5 12 10.5H11Z" fill="#1799D0"/>
</g>
</svg>
