<svg width="18" height="19" viewBox="0 0 18 19" fill="none" xmlns="http://www.w3.org/2000/svg">
<g id="Frame">
<path id="Vector" d="M16.3469 6.15948L7.34692 15.1595C7.26854 15.2381 7.17539 15.3006 7.07283 15.3431C6.97027 15.3857 6.86032 15.4076 6.74927 15.4076C6.63822 15.4076 6.52826 15.3857 6.4257 15.3431C6.32314 15.3006 6.23 15.2381 6.15161 15.1595L2.21411 11.222C2.13562 11.1435 2.07337 11.0503 2.03089 10.9478C1.98841 10.8452 1.96655 10.7353 1.96655 10.6243C1.96655 10.5133 1.98841 10.4034 2.03089 10.3009C2.07337 10.1983 2.13562 10.1052 2.21411 10.0267C2.2926 9.94818 2.38577 9.88593 2.48832 9.84345C2.59086 9.80097 2.70077 9.77911 2.81177 9.77911C2.92276 9.77911 3.03267 9.80097 3.13522 9.84345C3.23776 9.88593 3.33094 9.94818 3.40942 10.0267L6.74997 13.3672L15.153 4.96557C15.3115 4.80707 15.5265 4.71802 15.7507 4.71802C15.9748 4.71802 16.1898 4.80707 16.3483 4.96557C16.5068 5.12408 16.5959 5.33907 16.5959 5.56323C16.5959 5.7874 16.5068 6.00238 16.3483 6.16089L16.3469 6.15948Z" fill="#1799D0"/>
</g>
</svg>
