<svg width="18" height="19" viewBox="0 0 18 19" fill="none" xmlns="http://www.w3.org/2000/svg">
<g id="Frame">
<path id="Vector" d="M12.375 2.1875H5.625C4.58105 2.18862 3.58018 2.60382 2.842 3.342C2.10382 4.08018 1.68862 5.08105 1.6875 6.125V12.875C1.68862 13.9189 2.10382 14.9198 2.842 15.658C3.58018 16.3962 4.58105 16.8114 5.625 16.8125H12.375C13.4189 16.8114 14.4198 16.3962 15.158 15.658C15.8962 14.9198 16.3114 13.9189 16.3125 12.875V6.125C16.3114 5.08105 15.8962 4.08018 15.158 3.342C14.4198 2.60382 13.4189 2.18862 12.375 2.1875ZM9 12.875C8.33249 12.875 7.67997 12.6771 7.12495 12.3062C6.56993 11.9354 6.13735 11.4083 5.88191 10.7916C5.62646 10.1749 5.55962 9.49626 5.68985 8.84157C5.82008 8.18688 6.14151 7.58552 6.61351 7.11351C7.08552 6.64151 7.68688 6.32008 8.34157 6.18985C8.99626 6.05962 9.67486 6.12646 10.2916 6.38191C10.9083 6.63735 11.4354 7.06993 11.8062 7.62495C12.1771 8.17997 12.375 8.83249 12.375 9.5C12.3741 10.3948 12.0182 11.2527 11.3855 11.8855C10.7527 12.5182 9.89482 12.8741 9 12.875ZM13.2188 6.125C13.0519 6.125 12.8887 6.07552 12.75 5.9828C12.6112 5.89009 12.5031 5.75831 12.4392 5.60414C12.3754 5.44996 12.3587 5.28031 12.3912 5.11664C12.4238 4.95297 12.5041 4.80263 12.6221 4.68463C12.7401 4.56663 12.8905 4.48627 13.0541 4.45371C13.2178 4.42116 13.3875 4.43787 13.5416 4.50173C13.6958 4.56559 13.8276 4.67373 13.9203 4.81249C14.013 4.95124 14.0625 5.11437 14.0625 5.28125C14.0625 5.50503 13.9736 5.71964 13.8154 5.87787C13.6571 6.03611 13.4425 6.125 13.2188 6.125ZM11.25 9.5C11.25 9.94501 11.118 10.38 10.8708 10.75C10.6236 11.12 10.2722 11.4084 9.86104 11.5787C9.4499 11.749 8.9975 11.7936 8.56105 11.7068C8.12459 11.62 7.72368 11.4057 7.40901 11.091C7.09434 10.7763 6.88005 10.3754 6.79323 9.93895C6.70642 9.5025 6.75097 9.0501 6.92127 8.63896C7.09157 8.22783 7.37996 7.87643 7.74997 7.62919C8.11998 7.38196 8.55499 7.25 9 7.25C9.59674 7.25 10.169 7.48705 10.591 7.90901C11.0129 8.33097 11.25 8.90326 11.25 9.5Z" fill="#1799D0"/>
</g>
</svg>
