<svg width="18" height="19" viewBox="0 0 18 19" fill="none" xmlns="http://www.w3.org/2000/svg">
<g id="Frame">
<path id="Vector" d="M16.3125 9.49999C16.3128 10.7625 15.9862 12.0035 15.3645 13.1023C14.7429 14.2012 13.8473 15.1203 12.765 15.7703C11.6827 16.4204 10.4506 16.7791 9.18854 16.8117C7.92647 16.8442 6.67748 16.5495 5.56312 15.9561L3.16898 16.7541C2.97076 16.8202 2.75805 16.8298 2.55468 16.7818C2.35132 16.7338 2.16533 16.6302 2.01758 16.4824C1.86983 16.3347 1.76615 16.1487 1.71815 15.9453C1.67016 15.7419 1.67975 15.5292 1.74586 15.331L2.54391 12.9369C2.02229 11.9562 1.73095 10.8695 1.692 9.75942C1.65305 8.64932 1.8675 7.54493 2.3191 6.53009C2.77069 5.51524 3.44754 4.61661 4.29829 3.90241C5.14903 3.18821 6.1513 2.6772 7.22902 2.40818C8.30674 2.13917 9.43158 2.11921 10.5182 2.34982C11.6047 2.58043 12.6245 3.05556 13.5001 3.73913C14.3756 4.4227 15.0839 5.29675 15.5712 6.29493C16.0585 7.29312 16.312 8.3892 16.3125 9.49999Z" fill="#1799D0"/>
</g>
</svg>
