<svg width="12" height="12" viewBox="0 0 12 12" fill="none" xmlns="http://www.w3.org/2000/svg">
<g id="Frame">
<path id="Vector" d="M10.8694 8.2069C10.7858 8.84207 10.4739 9.4251 9.99183 9.84709C9.50981 10.2691 8.89065 10.5012 8.25 10.5C4.52813 10.5 1.5 7.4719 1.5 3.75003C1.49886 3.10938 1.73095 2.49023 2.15294 2.0082C2.57493 1.52617 3.15796 1.21423 3.79313 1.13065C3.95375 1.11104 4.1164 1.1439 4.25681 1.22433C4.39722 1.30475 4.50785 1.42843 4.57219 1.5769L5.56219 3.78706V3.79268C5.61145 3.90633 5.6318 4.03041 5.62141 4.15384C5.61102 4.27727 5.57022 4.39621 5.50266 4.50003C5.49422 4.51268 5.48532 4.5244 5.47594 4.53612L4.5 5.693C4.8511 6.40643 5.59735 7.14612 6.32016 7.49815L7.4611 6.52737C7.4723 6.51795 7.48404 6.50919 7.49625 6.50112C7.59999 6.43193 7.71933 6.3897 7.84349 6.37824C7.96765 6.36679 8.09271 6.38646 8.20735 6.4355L8.21344 6.43831L10.4217 7.42784C10.5705 7.49195 10.6944 7.60249 10.7751 7.74292C10.8558 7.88334 10.8889 8.04612 10.8694 8.2069Z" fill="#1799D0"/>
</g>
</svg>
