<svg width="16" height="17" viewBox="0 0 16 17" fill="none" xmlns="http://www.w3.org/2000/svg">
<g id="Frame">
<path id="Vector" d="M11.5 2H4.5C3.96957 2 3.46086 2.21071 3.08579 2.58579C2.71071 2.96086 2.5 3.46957 2.5 4V12C2.5 12.5304 2.71071 13.0391 3.08579 13.4142C3.46086 13.7893 3.96957 14 4.5 14H5L4.1 15.2C4.0606 15.2525 4.03194 15.3123 4.01564 15.3759C3.99935 15.4395 3.99574 15.5057 4.00503 15.5707C4.01431 15.6357 4.03631 15.6982 4.06976 15.7547C4.10322 15.8112 4.14747 15.8606 4.2 15.9C4.25253 15.9394 4.3123 15.9681 4.37591 15.9844C4.43952 16.0007 4.50571 16.0043 4.57071 15.995C4.63571 15.9857 4.69825 15.9637 4.75475 15.9302C4.81125 15.8968 4.8606 15.8525 4.9 15.8L6.25 14H9.75L11.1 15.8C11.1796 15.9061 11.298 15.9762 11.4293 15.995C11.5606 16.0137 11.6939 15.9796 11.8 15.9C11.9061 15.8204 11.9762 15.702 11.995 15.5707C12.0137 15.4394 11.9796 15.3061 11.9 15.2L11 14H11.5C12.0304 14 12.5391 13.7893 12.9142 13.4142C13.2893 13.0391 13.5 12.5304 13.5 12V4C13.5 3.46957 13.2893 2.96086 12.9142 2.58579C12.5391 2.21071 12.0304 2 11.5 2ZM5.25 12C5.10166 12 4.95666 11.956 4.83332 11.8736C4.70999 11.7912 4.61386 11.6741 4.55709 11.537C4.50032 11.4 4.48547 11.2492 4.51441 11.1037C4.54335 10.9582 4.61478 10.8246 4.71967 10.7197C4.82456 10.6148 4.9582 10.5434 5.10368 10.5144C5.24917 10.4855 5.39997 10.5003 5.53701 10.5571C5.67406 10.6139 5.79119 10.71 5.8736 10.8333C5.95601 10.9567 6 11.1017 6 11.25C6 11.4489 5.92098 11.6397 5.78033 11.7803C5.63968 11.921 5.44891 12 5.25 12ZM7.5 8H3.5V5.5H7.5V8ZM10.75 12C10.6017 12 10.4567 11.956 10.3333 11.8736C10.21 11.7912 10.1139 11.6741 10.0571 11.537C10.0003 11.4 9.98547 11.2492 10.0144 11.1037C10.0433 10.9582 10.1148 10.8246 10.2197 10.7197C10.3246 10.6148 10.4582 10.5434 10.6037 10.5144C10.7492 10.4855 10.9 10.5003 11.037 10.5571C11.1741 10.6139 11.2912 10.71 11.3736 10.8333C11.456 10.9567 11.5 11.1017 11.5 11.25C11.5 11.4489 11.421 11.6397 11.2803 11.7803C11.1397 11.921 10.9489 12 10.75 12ZM12.5 8H8.5V5.5H12.5V8Z" fill="#1799D0"/>
</g>
</svg>
